<svg id="Layer_1" data-name="Layer 1" xmlns="http://www.w3.org/2000/svg" viewBox="0 0 1238.62 481.31"><path d="M408.27,508.19c-28.58-59.44-57.16-118.89-86.69-180.34,14.92,1.83,29.78-6.28,36,10.77,20.75,44.84,42.06,89.43,63.55,133.89,2.66,5.51,3.43,16.77,13.74,11.65s1.76-12.79-.84-18.22C372.52,345.68,320.52,213.51,253.73,99.37c-6.84-.19-7.63,6-9.8,10.34Q152.76,289.41,61.78,469.2c-2.64,5.22-7.74,11.22-.14,15.34,8.76,4.74,10.36-4.17,13-9.33,22.27-43.64,44.8-87.15,66.24-131.21,5.74-11.82,12-17.46,25.77-16,14,1.48,14,.28,7.4,13.36Q117.14,453.4,60.28,565.5c-9.69,13.13,7.61,22.93,12.79,6.69,10.86-21.94,22.32-43.59,32.73-65.74,4.09-8.71,9.28-11.6,19-11.57q125.57.64,251.17.05c7.43,0,11.2,2.12,14.29,9,10.55,23.41,21.84,46.49,33,69.62,2.07,4.33,4.69,9,10.79,6.24,6.43-3,5.07-7.77,2.57-12.89C427.09,547.37,417.7,527.77,408.27,508.19ZM171,313.18c-3.76-.72-7.76-.12-14.1-.12,32.63-63.9,64.19-125.66,96.89-189.7,30.06,61.15,57,119.17,86.6,179.79,3.79,7.72,2.33,8.6-5.57,9.31-14.53,1.29-23.27-2.4-29.54-17.33-13-30.92-28.55-60.76-43.23-91-3.33-12.88-14.46-12.66-18.31,0-15.79,31-32.11,61.78-46.92,93.24C191.13,309.37,184.58,315.75,171,313.18ZM128,480.4c-11,0-5.41-5.43-3.41-9.36,44.19-82.55,82.8-170.44,129.83-250.25,41.13,85.84,82.28,171.68,124.39,259.51C293.69,480.3,210.85,480.25,128,480.4Z" transform="translate(-57.38 -99.37)"/><path d="M593.3,487.8h.08c0-21.81.09-43.6-.12-65.4,0-3.28,2.66-8.79-4.1-9-8-.33-4.6,6-4.64,9.41-2.38,6.07,6.16,79.72-8.17,58.14-49.17-46.55-108.28,23.79-67.12,69.62,17.82,18,47.4,17.76,66.16-.31,1.81-1.74,2.43-5.72,6-4.77,4.41,1.17,2.07,5.27,2.77,8,.76,3-1.91,7.67,4.09,8,6.81.33,5-4.76,5-8.29C593.38,531.39,593.3,509.6,593.3,487.8Zm-49.75,66.41c-51.31,1.79-51-80.73.41-78.81C597.12,474.23,597.24,556,543.55,554.21Z" transform="translate(-57.38 -99.37)"/><path d="M782.05,293.53c-20.71-17.8-57.17-15.21-72.38,9.1-1-21.39-.85-42.23-1.19-63-.07-3.93,3.24-11.05-4.83-10.77-7.84.31-4.29,7.34-4.34,11.22-.32,43.55-.64,87.12-.14,130.68.07,3.39-.86,7.32,5,7.17,9.31-.51.93-13.81,6.74-20.74C754.73,418.34,830,346.05,782.05,293.53ZM748.4,370.65c-52.47-.63-52.11-79.74.53-79.79C800.39,289.17,800.07,373.31,748.4,370.65Z" transform="translate(-57.38 -99.37)"/><path d="M548.93,370.84q.08-67.2,0-134.4c0-3.38,1-7.84-4.78-7.31-9.11-3.78-2.41,66.46-4.31,76.93-51.7-62.23-118.82,12.25-73.53,61.88,16.13,14.74,50.73,20.83,73.45-9.2,1.14,5.33-3.46,18.66,4.24,19.27C550,378.32,548.93,374.2,548.93,370.84ZM500,370.63c-52.07,1.74-51.63-81.44.36-79.46C552.58,290.45,552.39,372,500,370.63Z" transform="translate(-57.38 -99.37)"/><path d="M913.83,370.36c.2-26.52-.05-53.08.07-79.59.08-3.58-.16-6.2-4.73-6.24-8.44,0-.85,14.18-5.86,20.12-46.14-58.31-115.53,8.05-74.57,60.5,20.27,22.58,58.56,18.4,74.26-7.62,4.86,6.46-2.93,19.42,6.28,20.34C915.24,378,913.81,373.58,913.83,370.36Zm-49.68.27c-51,.83-50.78-81.12.55-79.67C918,290.05,917.21,371.77,864.15,370.63Z" transform="translate(-57.38 -99.37)"/><path d="M642.77,285.22c-38.91-15.29-77.27,20.54-64.54,60.16,7.79,32.44,57.28,46.37,81.62,23.6,1.83-1.71,5.31-3.09,1.93-6.4-2.24-2.2-4.29-5-7.69-1.29-21.4,18-58.72,8.34-66.62-16.53-8-17.37,26.92-6.87,36.18-9.67,2.16-.13,38.85,0,42.08,0C685.43,335.49,661.67,287,642.77,285.22Zm13.79,42c-21.39-.12-42.8-.19-64.18,0-7,.07-6.6-3.64-5.55-8.48,3.4-15.62,19.34-27.82,36.91-28.1C647.29,286.59,675.11,327,656.56,327.21Z" transform="translate(-57.38 -99.37)"/><path d="M715.8,508.07c-13.87-81.06-130.56-33.92-86.34,36.42,14.34,19.79,47.35,25.58,69.73,11.86,3.2-2,9.41-3.64,6.72-9.12-3.4-6.93-7.69-1.72-11.45.57-40.54,26.63-82.46-30.46-55.74-29.27,22.49,1.18,45.23-.94,67.69.38C715.63,519.65,717,515.91,715.8,508.07Zm-17.25,3.19c-11.74-.86-23.61,0-35.39-.21-9.06-2.75-38.95,7.59-31.82-9.52,5.5-17,18.65-26.51,37.63-26.32C694.33,471.73,720.35,512.72,698.55,511.26Z" transform="translate(-57.38 -99.37)"/><path d="M1089.94,512.19c-9.59-87.43-134.82-38.53-84.7,34.78,15.39,18.55,48.73,22.55,69.45,8.14,2.74-1.93,8.39-3.24,5.65-8.07-3.31-5.84-7.29-2.53-11.51.31-38.53,27.47-83-29-56.82-28.78,21.44.68,42.94-.19,64.4.13C1082,518.29,1091.33,521.26,1089.94,512.19Zm-18.2-.88c-9.81-.83-19.74-.19-29.63-.19v-.05c-7.71-2.22-42.51,6-37.82-6.73a36.38,36.38,0,0,1,34.34-29C1069.44,470.2,1094.24,513.48,1071.74,511.31Z" transform="translate(-57.38 -99.37)"/><path d="M841.69,467C745.8,455.32,774.32,601.48,862,555.18c2.93-2,9.36-3.16,5-9.29-4.29-5.88-7.15-.64-10.39,1.55-21.79,14.72-54.47,5.36-63.09-17.84-2.86-7.64-2.76-11.74,7.34-11.07,11.05.74,22.17.17,33.27.17,8.44-2.1,46.79,5.56,43.73-6.22A45.84,45.84,0,0,0,841.69,467Zm19.51,44.23c-21-.57-42.05-.26-63,0-6.67.27-7.08-2.85-6-8,3.62-16.89,19.27-28.08,39.11-27.77C854.82,472.21,881.11,511.56,861.2,511.22Z" transform="translate(-57.38 -99.37)"/><path d="M1087.67,282.38c-64.27-2.8-63.77,99.12-.69,97.44C1149.86,382.65,1151.48,279.7,1087.67,282.38Zm-.74,88.22c-51.83,1.16-50.35-82.39,1.39-79.86C1139,291,1138.45,372.46,1086.93,370.6Z" transform="translate(-57.38 -99.37)"/><path d="M1024.77,285.88c-18.77,45.19-37.68,90.18-56,135.38-2.55,6.29-5.86,7.57-12.84,6.22,4.83-19.13,22.72-37.28,16-57-12.13-27.8-23.77-55.81-35.94-84.58,8.43-3,11.86-.07,14.38,6.74,8,21.44,16.46,42.68,24.89,63.95,1.07,2.69,1,6.26,6,8.24,9.52-24.11,20.26-47.56,29.18-71.78C1012.74,285.43,1016.77,283,1024.77,285.88Z" transform="translate(-57.38 -99.37)"/><path d="M909.67,561.57c-6-.1-4.48-4.27-4.48-7.51q-.11-35.65-.05-71.3h.07c0-22.58-.09-45.16.1-67.74,0-3.31-2.38-8.67,4.62-8.45,6.21.19,3.83,5,3.86,7.93q.6,69.94.9,139.9C914.71,558,915.36,561.66,909.67,561.57Z" transform="translate(-57.38 -99.37)"/><path d="M981.5,560.21c-20.26,7.73-41-31.36-57.59-42.44-5.15-4.81-4.84-7.46,0-12.08,14.41-9.39,29.73-41.83,47.85-36.34C913.48,528.39,927.5,500.28,981.5,560.21Z" transform="translate(-57.38 -99.37)"/><path d="M753.66,551.75c0,3.53,3,9.67-4.69,9.65s-4.74-6.07-4.76-9.67c-.14-11.41-.17-22.82-.17-34.23.09-31.75,0-63.51.12-95.26,0-3.81-2.09-9.46,5.53-8.91,7,.5,3.95,5.83,4,8.93Q754,487,753.66,551.75Z" transform="translate(-57.38 -99.37)"/><path d="M1293.26,233.06c-8.69,20.77-51.71,7.87-53.68-13.93-8.87-34.74,29.8-59.08,56.42-34C1223.43,153.45,1228.25,265.51,1293.26,233.06Z" transform="translate(-57.38 -99.37)"/><path d="M1189.9,242.42c-7.58-1.88-28.73,4.82-29.23-4.91q0-30.69,0-61.35c1.48,0,3,0,4.43,0V219c0,19.34,0,19.32,19.41,19.91C1186.28,238.94,1188.54,238.11,1189.9,242.42Z" transform="translate(-57.38 -99.37)"/><path d="M1233.81,242.16c-6.81-1.75-30.8,4.66-30.17-4.72,1.87-11.4-3.91-62.12,4.83-63.45,0,19.1.53,36.37-.21,53.59-2.47,17.31,14.76,9.79,25.36,11.34C1233.69,240,1233.77,241.08,1233.81,242.16Z" transform="translate(-57.38 -99.37)"/></svg>