<svg id="Layer_1" data-name="Layer 1" xmlns="http://www.w3.org/2000/svg" viewBox="0 0 935.95 610.63"><defs><style>.cls-1{font-size:151.92px;font-family:Lato-Black, Lato;font-weight:800;}.cls-1,.cls-7{fill:#fff;}.cls-2{letter-spacing:-0.03em;}.cls-3{letter-spacing:-0.01em;}.cls-4{letter-spacing:-0.01em;}.cls-5{letter-spacing:-0.03em;}.cls-6{fill:#ffc607;}.cls-7{font-size:75px;font-family:Lato-Bold, Lato;font-weight:700;}.cls-8{letter-spacing:-0.02em;}.cls-9{letter-spacing:-0.03em;}.cls-10{letter-spacing:0em;}.cls-11{letter-spacing:-0.01em;}.cls-12{letter-spacing:-0.03em;}</style></defs><text class="cls-1" transform="translate(66.19 505.65)"><tspan class="cls-2">R</tspan><tspan class="cls-3" x="94.65" y="0">e</tspan><tspan class="cls-4" x="174.25" y="0">v</tspan><tspan x="254.08" y="0">amp</tspan><tspan class="cls-5" x="549.34" y="0"> </tspan><tspan x="579.27" y="0">Art</tspan></text><path class="cls-6" d="M1222.18,527.43c-59.69-19.07-120.25-54-181.41-76.06-81.15-47.71-545.33-123.63-421.35-261.84,30.4-22.46,89.49-24.24,20.75-33.11-89.62-21.94-376.8-33.29-246.71,117.47,36.4,44,74.77,97.43,124.1,125.92,49.35,26-1.48-105.17-3.81-127.74-9.9-42.23-32.47-80.93-44.27-121.77,29.86-13.58,59.66,8,69.62,35.75,41.55,73.83,124.12,311.69-35.49,276.43C402.48,413,302.05,317.64,286.22,201.84,315.66,21.91,668.91,84.71,789.57,130.67c85.58,85.73-70.23,89.17-117.73,108.45C845.75,341.8,1065.43,401.15,1222.18,527.43Z" transform="translate(-286.22 -81.52)"/><text class="cls-7" transform="translate(230.88 589.25)"><tspan class="cls-8">M</tspan><tspan x="69.71" y="0">edia</tspan><tspan class="cls-9" x="209.44" y="0"> </tspan><tspan class="cls-10" x="225.15" y="0">A</tspan><tspan class="cls-11" x="277.24" y="0">g</tspan><tspan x="316.16" y="0">enc</tspan><tspan class="cls-12" x="434.66" y="0">y</tspan></text></svg>