<svg id="Layer_1" data-name="Layer 1" xmlns="http://www.w3.org/2000/svg" viewBox="0 0 694.42 667.18"><defs><style>.cls-1{fill:#364b85;}.cls-2{fill:#3a4f87;}</style></defs><path class="cls-1" d="M932.07,104C899,93.74,867.16,85.47,834.72,79.83a811.37,811.37,0,0,0-98.8-10.89,776.62,776.62,0,0,0-100.27,1.41c-33.06,2.65-66,6.34-98.65,12.34S472.06,96.31,440,105c11.24-7.67,23.62-12.58,35.93-17.55,40.21-16.21,82-26.67,124.81-33.13,16.13-2.44,32.44-3.6,48.66-5.4,1.65-.19,3.76.7,4.71-1.61h60.72c9.84,3.11,20.2,3.18,30.25,4,32.65,2.82,64.5,9.59,96.05,17.81,30.5,7.94,59.87,19.37,88.82,31.79C930.3,101.09,930.48,101.72,932.07,104Z" transform="translate(-336.43 -47.28)"/><path class="cls-1" d="M1030.85,238.67v74.69c-3.36,2.12-4.31,5.41-4.8,9.11C1014.4,411,983.45,492.2,934,566.42a548.07,548.07,0,0,1-78.43,93.76,43.15,43.15,0,0,1-5,3.59l-1.17-1.21a859.39,859.39,0,0,0,111.2-181.17c33.21-72.75,55.85-148.52,64.51-228.21C1025.69,247.77,1027,242.74,1030.85,238.67Z" transform="translate(-336.43 -47.28)"/><path class="cls-1" d="M935,392.63c-2.63,48.66-19.49,91.2-48.54,129.42-21.14,27.83-47.9,49.44-76.61,69.26-24.26,16.75-49.11,14.05-75,7.68-39.27-9.67-74.6-28.22-109.3-48.26-5.17-3-7.22-5.25-1.61-10.13q27.75-24.15,54.95-48.93c2.56-2.32,3.61-3,6.8-.52,32.26,24.93,65.16,49,100.08,70.1,3.21,2,6.4,4.31,12.57,4.28-8.63-7.06-15.91-13.14-23.31-19.06-26.42-21.11-52.33-42.82-77.07-65.91-3.64-3.4-3.62-4.7-.17-8.19,35.63-36,69.73-73.43,99.33-114.7a309.56,309.56,0,0,0,27.94-46.46c1-2,2.58-4,1.1-7.3-11.09,12.27-22,24.26-32.78,36.3-12.26,13.64-24.52,27.26-36.65,41-2.9,3.28-4.8,3.45-7.73-.12-22.3-27.17-45.4-53.64-70.43-78.36-3.12-3.08-6-6.59-9.62-8.92-5-3.22-3.94-5.66-.9-9.68C685.53,261,701.69,237,715.23,211.35c2.88-5.47,5.93-3.54,9.35-1.63,17.85,10,34.24,22,50,35,5.72,4.69,11.23,9.64,17.44,13.92-2.12-7-7.85-11.33-12.69-16-16-15.46-33.23-29.41-52.58-40.52-3.26-1.87-3.82-3.22-1.73-6.49,4.05-6.31,7.59-12.94,11.32-19.45,1-1.73,2.62-3.38.59-6.44-4.64,6.14-9.28,11.9-13.49,17.95-3,4.32-5.87,5.34-10.9,2.75-27.6-14.2-56.28-25.72-86.4-33.48-7-1.8-14-3.57-21.18-5.4a17.48,17.48,0,0,1,.6-1.9c.16-.41.33-.81.51-1.21.27-.6.56-1.18.88-1.75q.3-.56.63-1.11c.78-1.31,1.62-2.58,2.43-3.87l.65-1.06c.24-.4.48-.81.7-1.22s.36-.66.53-1c.26-.51.5-1,.71-1.57.09-.23.18-.46.26-.7a5.62,5.62,0,0,0,.19-.58c.07-.22.14-.44.19-.66s.11-.45.16-.67a5.12,5.12,0,0,0,.1-.54c.05-.24.08-.49.11-.74h0c1.59-.56,3.06-1.18,1.56-3.25h0c.67-.68,1.35-1.31,2.05-1.9l.19-.16c.21-.18.41-.35.62-.51s.41-.33.63-.49c.42-.32.84-.63,1.27-.91s.66-.45,1-.66c.67-.43,1.34-.81,2-1.17.2-.11.4-.22.61-.32s.42-.22.64-.31l.58-.27a.24.24,0,0,1,.1,0c.39-.18.79-.35,1.19-.51a35.78,35.78,0,0,1,3.68-1.3q1.31-.37,2.64-.69c.34-.09.68-.16,1-.23l1-.2,1-.18c.67-.12,1.35-.23,2-.32l1-.14,1-.12c.47-.06,1-.11,1.42-.15,1-.11,2.05-.19,3.08-.27.7-.06,1.41-.1,2.11-.15h0l2.31-.14,2.51-.15,2.07-.13,2.05-.15,2-.17c25.87-2.39,52-2.16,77.52,3,40.09,8,76.72,24.19,108.3,50.55,41.16,34.37,70.26,76.86,84.68,128.8C935.93,330.51,936.73,361.22,935,392.63Z" transform="translate(-336.43 -47.28)"/><path class="cls-1" d="M613.64,132.85s0,.05,0,.07h0Z" transform="translate(-336.43 -47.28)"/><path class="cls-1" d="M615.19,129.67l-.15.12.11-.11Z" transform="translate(-336.43 -47.28)"/><path class="cls-1" d="M744.8,390.23a29.34,29.34,0,0,1-2.47,4c-19.17,22-39,43.36-61.18,62.42-2.56,2.21-3.69,1.79-6-.15a761,761,0,0,1-85.57-85c-2.73-3.19-1.71-4.32.9-6.55,21.44-18.38,40.37-39.16,57.7-61.39,2.88-3.7,4.07-4.58,8-1.12a932.92,932.92,0,0,1,82.94,81.15C741.1,385.66,742.85,387.89,744.8,390.23Z" transform="translate(-336.43 -47.28)"/><path class="cls-1" d="M598.71,528.44c-2.69-1.7-5.45-3.14-7.86-5-24.37-19-45.9-40.73-63.57-66.14-4.14-5.94-8-12.07-12.3-17.89-2.55-3.46-1.85-5.77,1.25-8.26,18.47-14.91,36.92-29.83,54.36-45.94,2.42-2.23,3.77-1.36,5.58.81,24.81,29.88,53.16,56.25,81.92,82.19,3.52,3.18,3.21,4.56-.17,7.57-18.32,16.27-36.39,32.85-54.57,49.29A56.81,56.81,0,0,1,598.71,528.44Z" transform="translate(-336.43 -47.28)"/><path class="cls-1" d="M635.85,293c-17,22.31-37,41.65-57.57,60.47-3,2.7-3.72,1.84-5.72-.7-21.25-27-41.36-54.79-57.8-85.1-2.22-4.08-1.65-5.87,1.61-8.93,11.28-10.59,22.08-21.7,33.11-32.56,1-1,1.4-3,3.29-2.73,3.24,1.86,6.41,3.57,9.47,5.45,25.78,15.83,49,35.11,72.53,54C638.66,286,639.16,288.61,635.85,293Z" transform="translate(-336.43 -47.28)"/><path class="cls-1" d="M706.91,206.69q-25.49,32.17-50.55,64.68c-3.15,4.06-5.71,3.82-9.27.41-23.48-22.54-49.09-42.52-75.69-61.2-4.16-2.91-3.44-4.52-.94-7.77,6.14-8,12.39-16,16.83-25,3.53-7.2,8.26-11,14.66-9.16,26,.88,48.43,8.84,70.82,16.8,10.68,3.8,21,8.56,31.58,12.67C709.22,200,710.6,202,706.91,206.69Z" transform="translate(-336.43 -47.28)"/><path class="cls-1" d="M930.65,712.53a814.22,814.22,0,0,0-246-35.49c-83.73.69-166,12.76-246,37.42C602.35,632.73,766.47,640.59,930.65,712.53Z" transform="translate(-336.43 -47.28)"/><path class="cls-1" d="M558.88,370.64C542.2,387.19,524.87,403,506,417c-3.66,2.71-5.39,2.16-7.28-1.74-15.15-31.23-28.92-62.94-35.16-97.41-1.57-8.68-1.74-15.12,8-20.29,9.14-4.86,16.48-13.08,25-20.14q12.35,18.28,24.67,36.54c11.73,17.3,23.77,34.37,37.18,50.43C560.13,366.5,561.69,367.85,558.88,370.64Z" transform="translate(-336.43 -47.28)"/><path class="cls-1" d="M516.82,661.45c-7.9-3.8-13.54-10.06-19.28-15.92-89.4-91.17-137.46-202-154.93-327.19a633.19,633.19,0,0,1-5.91-106.23c.12-4.22.44-8.43.79-14.76C350.07,371.69,410.41,525.39,516.82,661.45Z" transform="translate(-336.43 -47.28)"/><path class="cls-1" d="M574.32,546.44c-11.49,9.56-23.06,19-35.15,27.81-2.67,2-3.64.87-5.78-.42-18-10.81-31.76-26.2-44.79-42.25-12.73-15.69-22.81-33.09-32.12-51-2-3.85-1.51-5.6,2-8.07,9.9-6.94,19.44-14.38,29.14-21.6.83-.62,1.74-1.11,2.56-1.63,2.15-.24,2.5,1.51,3.3,2.74,21.8,34,49.37,62.72,80.73,87.94C577.31,542.46,577.34,543.93,574.32,546.44Z" transform="translate(-336.43 -47.28)"/><path class="cls-1" d="M766.41,608.24c-48.58,25.93-148.06,21.17-206.11-18.15,6.7-7.21,15.7-11.39,22.56-18,10.07-9.73,18.14-10.23,31.13-1.92,43,27.51,91.78,35.93,142,37.42,3.37.1,6.74.06,10.1.12C766.23,607.68,766.32,608,766.41,608.24Z" transform="translate(-336.43 -47.28)"/><path class="cls-1" d="M479.5,437.13c-10.73,7-21.16,14.49-32.46,22.31-17.58-44.12-20.68-88.79-12.37-134.64,5.12,13.39,10.06,26.85,15.38,40.16a531.7,531.7,0,0,0,31,64.07C483.05,432.56,483.36,434.6,479.5,437.13Z" transform="translate(-336.43 -47.28)"/><path class="cls-1" d="M537.09,221.18c-8.09,8.72-16.75,16.84-25.6,24.75-3.08,2.76-5.53,4-7.9-1.36-5.21-11.88-10.22-23.77-12.41-36.64-.76-4.46,5.93-13.81,10.16-14.09,1.87,1,4,2,6,3.19,9.65,5.95,19.17,12.12,28.94,17.88C539.77,217,539.76,218.31,537.09,221.18Z" transform="translate(-336.43 -47.28)"/><path class="cls-1" d="M487.84,270.26c-8.29,8.05-16.63,16.1-28.48,21.39,0-14.49-.84-28.39.34-42.12.61-7,5.86-13.05,12.25-18.92,6.19,11.63,11.73,22.4,17.65,32.95C491.43,266.82,489.53,268.61,487.84,270.26Z" transform="translate(-336.43 -47.28)"/><path class="cls-1" d="M582.15,169c-7.56,10.87-15,20.39-23.73,28.83-1.57,1.52-2.32,3.23-5.3.81a132.94,132.94,0,0,0-28.24-17.35c-5-2.31-2.41-3.85.14-5.7,7.06-5.13,15.47-5.9,23.63-6.42C559.42,168.53,570.27,169,582.15,169Z" transform="translate(-336.43 -47.28)"/><path class="cls-2" d="M613.59,132.94l0-.05.09,0Z" transform="translate(-336.43 -47.28)"/><path class="cls-1" d="M613.55,132.89c-.23.1-.46.2-.67.31a10.63,10.63,0,0,0-1.76,1.05l-.36.26c-.12.09-.24.18-.35.28a9.63,9.63,0,0,0-.83.73c-.16.15-.32.3-.46.46s-.41.42-.59.64a51.09,51.09,0,0,0-4.75,7.16c-.25.41-.5.81-.76,1.2s-.52.8-.8,1.18-.46.63-.7.93c-2.53,3.17-4.77,4.83-8.95,4.46-9.8-.87-19.64-1.32-30.23-2,2.2-6.67,8.66-8.11,13.38-10.3,10.49-4.87,21.57-8.49,32.54-12.22,1.68-.57,4.35-1.79,5.79-.24a1.83,1.83,0,0,1,.36.49q.08.13.15.3a1.89,1.89,0,0,1,.11.25l.09.28c0,.09,0,.19.08.3a6.75,6.75,0,0,1,.19,1.3C613.4,130.22,612.1,130.88,613.55,132.89Z" transform="translate(-336.43 -47.28)"/><path class="cls-2" d="M615.19,129.67l-.15.12a.17.17,0,0,0,0-.07l.12,0Z" transform="translate(-336.43 -47.28)"/><path class="cls-2" d="M850.56,663.77c-.39,1.49-1.69,3.47-2.69,2.65-2-1.68.48-2.72,1.52-3.86Z" transform="translate(-336.43 -47.28)"/></svg>